<svg id="Calque_1" data-name="Calque 1" xmlns="http://www.w3.org/2000/svg" width="7em" viewBox="0 0 250 240.75"><defs><style>.cls-1{fill:#b2f617;}.cls-2{fill:#323639;}</style></defs><title>nicecactus-assets</title><path class="cls-1" d="M249.9,3A3,3,0,0,0,247,.07c-8.42-.19-22.32,0-38,.5-34.24,1-77.09,3.05-90.76,4-3.85.28-10.37.78-18.42,1.4C69,8.39,15.53,12.7,2.72,13.73A3,3,0,0,0,0,16.79c.48,13,2.48,67.73,3.35,89.37C4.24,128.51,6.76,210.89,7.22,226a3,3,0,0,0,2.58,2.84c5.62.7,20,2.07,37,3.57,26.65,2.33,59.69,5,75.33,5.85,15.38.85,33.12,1.41,49.75,1.77,25.73.57,48.77.67,56.21.69a3,3,0,0,0,2.92-2.47c2.08-12.47,11.43-69.79,15.36-117.83C250.48,70.68,250.07,15.89,249.9,3Z"/><path class="cls-2" d="M231.94,19.8a2.53,2.53,0,0,0-2.48-2.5c-7.21-.17-19.11,0-32.56.43-4.22.12-8.59.26-13,.42.7,2.86,1.49,6.09,2.26,9.26l13.12,7.91-11.05.82c.31,1.34.59,2.56.82,3.62l3,1.23,9.07,3.67-7.84,2-2.61.67c1.11,5,2.52,11.42,3.84,17.53l13.07,7-11.39,1c1.28,6.27,2.21,11.28,2.17,12.69-.1,3.8-2.33,8.38-2.33,8.38l-9.84,16.22a2,2,0,0,1-2.16.93s-18.76-3.59-25.47-5.46a12.3,12.3,0,0,1-2.49-1.33c-1-.79-9.41-10-18.09-20L127.67,93l4-16-3.37-4-10.37,6.28,5.2-12.6-.62-.79c-2.66-3.39-14.68-20.26-24.77-34.45l-6.12,4.5,2.75-9.25L92,23.27c-26.53,2.09-62.14,5-71.64,5.73A2.53,2.53,0,0,0,18,31.61c.41,11.17,2.13,58,2.87,76.52.76,19.14,2.92,89.67,3.31,102.63a2.53,2.53,0,0,0,2.21,2.43c4.81.61,17.15,1.78,31.71,3.06l5.24.45c-.3-2.3-.59-4.62-.68-5.43-.12-1.28-.64-5-1.33-9.93l-11.75-8.23L60,192.34c-.44-3.09-.9-6.29-1.34-9.41L47.87,171.16l9.4,1.51c-.4-2.95-.73-5.52-1-7.41a164.87,164.87,0,0,1-1.47-18.55c0-7.75,1.58-12.27,5.27-18.6A32.63,32.63,0,0,1,63.86,123l-3.33-9.63,8.15,5A25.79,25.79,0,0,1,80,112.91c10.06-1.67,21.36,4.55,27.72,12.08l7.32-6.17-1.54,13.43c2.38,3.08,5.2,6.8,8.23,10.89l6-4.48-1.42,10.68c7.9,10.91,16.42,23.32,22.1,33.22l6.76-6.75-1.92,15.3c5.45,9.72,12.44,22.87,17,31.77,19.95.39,37.23.47,43.11.48a2.53,2.53,0,0,0,2.5-2.11c1.78-10.68,9.78-59.76,13.15-100.88C232.43,77.76,232.08,30.84,231.94,19.8Z"/><path class="cls-2" d="M176.57,65.18c2.56-1.2,1.41-6.71.18-9.36-1.94-4.2-4.81-7.65-7.55-6.2s-2,6.21.31,10.73C171.52,64.2,174.34,66.22,176.57,65.18Z"/><path class="cls-2" d="M153.72,74.37c1.64-.94,2.77-4.86-.6-11-2.63-4.78-5.85-6.45-7.84-5.33s-2.19,4.74.51,10.38C147.61,72.28,151.26,75.77,153.72,74.37Z"/><path class="cls-2" d="M75.89,158.56c-2.66,1.24-2.18,7.27-1.37,10.82.7,3.06,4.25,10,7.6,9s3-7.52.94-13.5S77.51,157.81,75.89,158.56Z"/><path class="cls-2" d="M102.79,150.18c-1.14.45-4,5-.72,13.12,2.54,6.33,5.74,7.23,7.18,6.75,2.53-.84,3.32-6.1.84-13.51C108.42,151.53,104.83,149.37,102.79,150.18Z"/></svg>