<?xml version="1.0" standalone="no"?>
<!DOCTYPE svg PUBLIC "-//W3C//DTD SVG 20010904//EN"
 "http://www.w3.org/TR/2001/REC-SVG-20010904/DTD/svg10.dtd">
<svg version="1.0" xmlns="http://www.w3.org/2000/svg"
 width="7em" viewBox="0 0 1024.000000 1024.000000"
 preserveAspectRatio="xMidYMid meet">

<g transform="translate(0.000000,1024.000000) scale(0.100000,-0.100000)"
fill="#CB333B" stroke="none">
<path d="M1090 7040 l0 -3070 450 0 450 0 0 3070 0 3070 -450 0 -450 0 0
-3070z"/>
<path d="M3260 7040 l0 -3070 2940 0 2940 0 0 3070 0 3070 -2940 0 -2940 0 0
-3070z m1498 1575 c124 -29 226 -106 277 -209 l25 -50 0 137 0 137 460 0 461
0 -4 -1412 c-3 -1284 -5 -1419 -20 -1483 -55 -229 -213 -383 -452 -443 -155
-39 -260 -43 -950 -40 l-660 3 -3 328 -2 327 533 0 c373 0 544 3 567 11 52 19
60 51 60 261 l0 183 -30 -51 c-53 -94 -144 -158 -269 -190 -88 -22 -434 -15
-531 11 -223 59 -366 198 -427 415 -17 60 -18 119 -18 820 0 701 1 760 18 820
64 228 219 370 455 420 114 24 416 27 510 5z m2655 0 c125 -26 228 -104 284
-216 l28 -55 -3 143 -3 143 455 0 456 0 -2 -1437 -3 -1438 -28 -82 c-67 -198
-218 -330 -440 -383 -152 -37 -267 -41 -947 -38 l-655 3 -3 327 -2 328 550 2
550 3 27 28 28 27 3 198 3 197 -39 -60 c-47 -73 -88 -109 -167 -146 -85 -40
-145 -49 -334 -49 -124 0 -189 5 -258 19 -230 48 -380 176 -451 385 l-27 81 0
775 0 775 27 81 c76 222 254 362 503 397 80 11 384 6 448 -8z"/>
<path d="M4750 7938 c-14 -7 -33 -29 -42 -48 -16 -32 -18 -78 -18 -520 0 -442
2 -488 18 -520 26 -52 52 -61 168 -58 113 3 134 13 160 75 20 47 20 959 0
1006 -26 62 -47 72 -160 75 -68 2 -109 -2 -126 -10z"/>
<path d="M7415 7941 c-11 -5 -29 -19 -40 -31 -19 -21 -20 -36 -20 -541 l0
-519 28 -27 c26 -26 33 -28 130 -31 94 -3 105 -2 137 20 20 14 40 38 47 58 19
56 18 959 -1 1005 -24 57 -66 75 -171 74 -49 0 -99 -4 -110 -8z"/>
<path d="M1090 2815 l0 -765 450 0 450 0 2 765 3 765 -452 0 -453 0 0 -765z"/>
<path d="M3260 2815 l0 -765 2940 0 2940 0 0 765 0 765 -2940 0 -2940 0 0
-765z"/>
<path d="M5550 955 l0 -595 145 0 145 0 0 315 c0 302 1 316 20 335 23 23 68
26 93 8 15 -12 17 -46 17 -335 l1 -323 150 0 150 0 -3 373 c-3 370 -3 372 -27
413 -36 64 -87 87 -197 92 -97 4 -130 -5 -168 -47 -11 -12 -23 -21 -28 -21 -4
0 -8 86 -8 190 l0 190 -145 0 -145 0 0 -595z"/>
<path d="M1725 1231 c-113 -28 -155 -98 -155 -260 0 -103 12 -150 47 -192 42
-49 84 -62 221 -68 140 -7 142 -8 142 -87 0 -60 -12 -74 -62 -74 -42 0 -58 19
-58 67 l0 28 -140 0 -140 0 0 -65 c1 -116 44 -176 148 -206 73 -22 369 -16
422 9 92 41 114 89 115 242 0 110 -2 124 -25 165 -39 70 -94 93 -239 98 -64 2
-122 9 -128 14 -8 7 -13 35 -13 74 0 60 2 65 26 75 28 10 64 3 76 -15 4 -6 8
-28 8 -48 l0 -38 140 0 140 0 0 61 c0 34 -5 79 -12 101 -15 50 -74 102 -133
117 -48 12 -332 13 -380 2z"/>
<path d="M2470 800 l0 -440 145 0 145 0 0 319 c0 319 0 320 22 335 26 18 61
20 89 6 18 -10 19 -25 19 -335 l0 -325 150 0 150 0 0 319 c0 355 -1 351 65
351 66 0 65 4 65 -351 l0 -319 145 0 145 0 0 368 c0 336 -2 370 -19 408 -33
72 -102 104 -226 104 -83 0 -145 -24 -171 -67 -10 -15 -19 -30 -20 -32 -2 -2
-17 13 -34 32 -40 46 -103 67 -198 67 -83 0 -131 -17 -157 -56 -24 -36 -36
-30 -29 16 l7 40 -147 0 -146 0 0 -440z"/>
<path d="M3916 1224 c-49 -18 -73 -39 -97 -86 -17 -34 -19 -62 -19 -335 0
-269 2 -302 19 -339 32 -71 102 -103 224 -104 64 0 112 16 141 49 27 30 36 26
36 -14 l0 -35 145 0 145 0 0 440 0 440 -140 0 -140 0 0 -40 c0 -46 -11 -51
-35 -14 -9 14 -32 32 -50 40 -44 18 -178 17 -229 -2z m292 -221 c15 -21 17
-375 2 -404 -13 -23 -91 -27 -109 -5 -8 9 -11 74 -9 212 l3 198 25 13 c29 15
70 9 88 -14z"/>
<path d="M4793 1226 c-108 -34 -138 -92 -137 -261 0 -127 14 -169 65 -208 47
-35 99 -47 210 -47 121 0 134 -8 133 -83 -1 -30 -4 -59 -8 -66 -4 -6 -27 -11
-52 -11 -39 0 -46 3 -55 27 -5 14 -8 35 -7 45 3 18 -6 19 -141 21 l-143 2 4
-76 c7 -119 52 -175 159 -198 63 -14 309 -14 369 0 107 24 152 84 158 212 9
167 -16 234 -102 276 -42 21 -68 26 -165 29 -64 2 -122 9 -128 14 -8 6 -13 34
-13 69 0 51 3 61 24 74 24 16 70 12 82 -6 3 -5 6 -27 7 -49 l1 -40 144 0 145
0 -8 72 c-12 123 -48 176 -139 203 -64 19 -342 20 -403 1z"/>
<path d="M7025 1224 c-50 -18 -91 -58 -107 -103 -9 -26 -13 -111 -13 -296 0
-259 0 -261 25 -310 32 -61 86 -92 180 -101 77 -7 137 6 178 41 17 14 33 25
36 25 8 0 8 -104 0 -124 -5 -14 -32 -16 -190 -16 l-184 0 0 -106 0 -105 263 3
c246 3 264 4 302 25 48 25 80 58 94 96 7 19 11 192 11 508 l0 479 -140 0 -140
0 0 -40 c0 -46 -12 -51 -35 -16 -26 40 -74 56 -162 55 -43 0 -96 -7 -118 -15z
m285 -214 c18 -18 20 -33 20 -182 0 -136 -3 -164 -17 -180 -19 -21 -82 -25
-101 -6 -13 13 -17 344 -4 364 7 12 33 21 65 23 9 0 26 -8 37 -19z"/>
<path d="M7897 1226 c-45 -17 -82 -49 -105 -91 -15 -26 -17 -68 -17 -305 0
-275 0 -275 25 -319 31 -56 91 -88 180 -97 82 -8 145 8 181 47 15 16 30 29 33
29 11 0 6 -126 -6 -138 -8 -8 -66 -12 -195 -12 l-183 0 0 -105 0 -105 243 0
c316 0 373 16 418 114 17 38 19 75 19 519 l0 477 -146 0 -146 0 4 -40 c4 -41
-15 -57 -27 -22 -3 9 -18 26 -33 37 -35 26 -187 33 -245 11z m291 -208 c8 -8
12 -65 12 -189 0 -172 -1 -178 -22 -193 -31 -22 -74 -20 -98 4 -18 18 -20 33
-20 189 0 141 3 172 16 185 18 19 94 22 112 4z"/>
<path d="M6410 500 l0 -140 150 0 150 0 0 140 0 140 -150 0 -150 0 0 -140z"/>
</g>
</svg>
